<svg width="84" height="87" viewBox="0 0 84 87" fill="none" xmlns="http://www.w3.org/2000/svg">
<path fill-rule="evenodd" clip-rule="evenodd" d="M49.132 12.82C46.2428 13.9837 50.7494 17.2342 57.5287 18.8795L61.0336 19.7222C50.1719 24.2969 39.9261 28.3899 32.4922 37.8201C30.5279 40.3081 29.95 40.7896 28.3708 41.231C17.5474 44.2408 4.9909 56.3195 0.946578 67.5555C-0.555598 71.6889 -0.286016 73.5346 1.87096 74.1366C4.182 74.7787 4.64423 74.4176 6.7242 70.1237C11.6159 59.9308 23.1711 46.8891 27.2924 46.8891C27.3695 46.8891 27.1769 47.5716 26.9073 48.4142C22.9014 60.2118 33.9175 68.4786 45.8577 62.6196C56.0263 57.6036 52.3286 42.2744 40.5809 40.6291C35.4581 39.9068 48.0917 30.3563 61.6115 24.7383C64.6157 23.4943 67.2349 22.4911 67.4276 22.4911C67.6586 22.4911 65.8867 24.5375 63.4985 26.9854C56.1418 34.6499 54.3703 38.0208 56.9507 39.2648C59.1847 40.3081 61.6497 39.1043 64.3847 35.5329C69.4302 28.9518 74.1682 24.5375 80.5237 20.3641C88.0727 15.4283 81.6018 14.1042 77.3266 15.6692C71.2408 17.9565 58.0679 16.8731 53.6768 13.6628C52.4828 12.7398 50.2874 12.3385 49.132 12.82ZM41.8135 44.8829C47.822 49.0162 45.0874 59.0882 37.4224 60.8939C32.6077 62.0175 31.6064 52.2666 35.8048 44.8424C36.7677 43.1572 39.3099 43.1573 41.8135 44.8829Z" fill="#FAFAFA"/>
</svg>
