<svg width="72" height="90" viewBox="0 0 72 90" fill="none" xmlns="http://www.w3.org/2000/svg">
<path fill-rule="evenodd" clip-rule="evenodd" d="M64.0166 2.88316C61.4795 3.80887 57.6623 4.16882 49.7995 4.24596C40.6338 4.32311 40.7481 4.22022 44.5423 8.97737C46.5538 11.4974 47.0109 12.7831 47.2852 13.246C46.8052 13.606 44.1766 17.2317 39.1023 17.7974C31.9252 18.5946 25.5252 18.2088 27.7652 34.8459C28.8166 42.5602 26.9881 45.5431 20.5652 46.5459C15.8566 47.2917 13.4794 47.6002 11.1023 47.7288C-0.0748692 48.3459 -5.99487 56.3945 -4.44058 68.7888C-4.25773 70.2802 -3.64065 71.6431 -2.68065 72.6974C7.76506 84.2174 7.81084 83.7288 9.61656 85.8374C10.8051 87.226 11.6051 87.7145 12.6565 87.7145C13.9594 87.7145 13.9366 87.8174 14.0966 80.2059C14.3252 68.0688 15.9481 65.0088 24.1538 61.1002C36.9081 55.0574 39.2395 51.6631 38.8966 39.6031C38.6681 31.6059 38.4395 31.9145 47.9023 27.9031C53.1823 25.666 53.5023 25.2803 56.3138 22.9146C57.4566 24.3803 58.2795 25.5374 59.2166 26.2317C62.8509 28.9831 62.9881 24.6632 63.6738 21.3974C64.8623 15.766 66.5309 10.0831 68.0395 6.56025C69.8452 2.29167 67.4909 1.62315 64.0166 2.88316ZM63.8795 5.78882C63.8795 6.07168 61.3195 10.8802 59.7423 20.2917C59.4223 22.1431 59.3538 22.1946 58.6452 21.1146C57.3652 19.1603 55.4678 18.9031 53.7764 20.4717C51.1707 22.8631 49.1823 24.0974 45.2509 25.7431C34.4623 30.2945 34.9881 29.6517 34.9423 38.3688C34.8966 51.5345 34.0509 52.8459 21.2738 58.9402C12.6566 63.0545 10.3251 66.7574 10.0051 76.7345L9.86801 81.0288C8.29087 79.3831 1.41078 72.1574 -0.394938 70.8202C-1.19494 70.2288 -1.28634 70.0488 -1.17206 69.3545C-1.10349 68.9174 -0.989156 67.4002 -0.897727 65.9859C-0.303442 55.7774 3.99372 50.7374 12.9537 49.6831C30.0052 47.6517 32.6566 45.2859 31.1023 33.5859C29.9366 24.9203 32.1995 20.8831 38.4852 20.3431C43.4909 19.906 47.3081 18.3632 50.1423 15.6117C51.8338 13.966 52.4509 14.6345 50.8966 12.4231C46.5995 6.30306 46.4393 6.68877 53.5478 6.50877C63.4907 6.30306 63.8795 5.48025 63.8795 5.78882Z" fill="#003366"/>
</svg>
