<svg width="35" height="35" viewBox="0 0 35 35" fill="none" xmlns="http://www.w3.org/2000/svg">
<path fill-rule="evenodd" clip-rule="evenodd" d="M14.5827 5.83337H5.83268C5.05913 5.83337 4.31727 6.14066 3.77029 6.68765C3.22331 7.23463 2.91602 7.97649 2.91602 8.75004V26.25C2.91602 27.0236 3.22331 27.7655 3.77029 28.3124C4.31727 28.8594 5.05913 29.1667 5.83268 29.1667H14.5827V5.83337ZM6.38539 13.5523C6.112 13.8258 5.95841 14.1967 5.95841 14.5834C5.95841 14.9701 6.112 15.3409 6.38539 15.6144L8.27102 17.5L6.38539 19.3857C6.24611 19.5202 6.13501 19.6811 6.05858 19.859C5.98215 20.037 5.94192 20.2283 5.94023 20.422C5.93855 20.6156 5.97545 20.8076 6.04878 20.9868C6.1221 21.1661 6.23039 21.3289 6.36731 21.4658C6.50424 21.6028 6.66707 21.711 6.84629 21.7844C7.02552 21.8577 7.21755 21.8946 7.41118 21.8929C7.60482 21.8912 7.79618 21.851 7.97411 21.7746C8.15203 21.6981 8.31295 21.587 8.44747 21.4477L11.3641 18.5311C11.6375 18.2576 11.7911 17.8867 11.7911 17.5C11.7911 17.1133 11.6375 16.7425 11.3641 16.469L8.44747 13.5523C8.174 13.2789 7.80313 13.1254 7.41643 13.1254C7.02973 13.1254 6.65887 13.2789 6.38539 13.5523Z" fill="#003366"/>
<path d="M17.5 29.1667H29.1667C29.9402 29.1667 30.6821 28.8594 31.2291 28.3124C31.776 27.7655 32.0833 27.0236 32.0833 26.25V8.75004C32.0833 7.97649 31.776 7.23463 31.2291 6.68765C30.6821 6.14066 29.9402 5.83337 29.1667 5.83337H17.5V29.1667Z" fill="#003366"/>
</svg>
