<svg width="30" height="30" viewBox="0 0 30 30" fill="none" xmlns="http://www.w3.org/2000/svg">
<path fill-rule="evenodd" clip-rule="evenodd" d="M12.5413 3.60374C13.2234 3.01136 14.0965 2.68518 15 2.68518C15.9035 2.68518 16.7766 3.01136 17.4587 3.60374L26.2087 11.1987C26.6143 11.5509 26.9394 11.986 27.1622 12.4747C27.3849 12.9634 27.5002 13.4942 27.5 14.0312V23.75C27.5 24.7446 27.1049 25.6984 26.4017 26.4016C25.6984 27.1049 24.7446 27.5 23.75 27.5H19.375C18.8777 27.5 18.4008 27.3024 18.0492 26.9508C17.6975 26.5992 17.5 26.1223 17.5 25.625V17.1087H12.5V25.625C12.5 26.1223 12.3025 26.5992 11.9508 26.9508C11.5992 27.3024 11.1223 27.5 10.625 27.5H6.25C5.25544 27.5 4.30161 27.1049 3.59835 26.4016C2.89509 25.6984 2.5 24.7446 2.5 23.75V14.0312C2.49985 13.4942 2.61506 12.9634 2.83783 12.4747C3.0606 11.986 3.38574 11.5509 3.79125 11.1987L12.5413 3.60374ZM15.82 5.49124C15.5926 5.29356 15.3013 5.18469 15 5.18469C14.6987 5.18469 14.4074 5.29356 14.18 5.49124L5.43 13.0875C5.29496 13.2049 5.18669 13.3499 5.11251 13.5127C5.03832 13.6755 4.99996 13.8523 5 14.0312V23.75C5 24.0815 5.1317 24.3995 5.36612 24.6339C5.60054 24.8683 5.91848 25 6.25 25H10V17.1087C10 16.4457 10.2634 15.8098 10.7322 15.341C11.2011 14.8721 11.837 14.6087 12.5 14.6087H17.5C18.163 14.6087 18.7989 14.8721 19.2678 15.341C19.7366 15.8098 20 16.4457 20 17.1087V25H23.75C24.0815 25 24.3995 24.8683 24.6339 24.6339C24.8683 24.3995 25 24.0815 25 23.75V14.0312C24.9999 13.8522 24.9613 13.6753 24.8869 13.5125C24.8125 13.3497 24.704 13.2047 24.5688 13.0875L15.82 5.49124Z" fill="black"/>
</svg>
