<svg width="67" height="68" viewBox="0 0 67 68" fill="none" xmlns="http://www.w3.org/2000/svg">
<path d="M46.0212 22.8817L44.3651 21.076L44.6203 19.8138C45.5501 15.124 38.1075 12.1252 35.2783 16.0479C34.9728 16.4633 34.4938 16.7214 33.7042 16.889C32.2519 17.1865 27.6863 18.544 26.7786 18.8661C23.753 19.9075 25.2123 20.9136 26.501 20.4297C29.4197 19.3679 29.2848 19.2401 28.9237 20.3846C28.3716 22.179 31.7159 26.5008 34.5743 27.6953C37.1614 28.7802 41.6842 27.8309 42.3626 26.0474C43.7 22.49 48.3214 33.6918 47.383 38.2648C44.4749 52.5373 22.7792 50.7359 19.301 35.9261L18.8896 34.1905L20.8036 34.4422C24.1457 34.8923 24.7713 33.546 21.7865 32.3406C16.9119 30.3876 15.8114 25.4061 20.5179 26.6182C22.0997 27.0321 23.5347 26.5009 23.7294 25.4619C24.2845 22.3348 25.682 22.6691 26.8648 25.1415C27.5137 26.4707 27.3272 27.6751 25.9308 31.3099C24.7039 34.4987 24.9497 35.2501 26.9044 34.2959C28.214 33.6565 30.0032 26.5624 29.4108 24.4069C28.5835 21.3736 23.7237 20.9384 22.3447 23.7658C22.0369 24.4244 21.7623 24.6552 21.4714 24.5552C21.1806 24.4552 21.0479 24.0842 21.5016 23.427C21.9553 22.7699 22.7795 22.0286 22.2782 21.5472C21.6033 20.9085 19.9299 22.9841 19.7225 23.3032C19.5057 23.6027 18.7841 24.8021 17.885 25.241C14.7966 26.7487 14.0819 28.2595 15.4334 30.3833C16.1809 31.5675 16.2745 31.9575 16.1815 33.552C15.441 45.9675 28.8708 54.6362 40.4982 49.2504C52.3402 43.8082 54.7155 32.3615 46.0212 22.8817ZM41.0804 22.7764C40.1144 26.1526 39.8494 26.403 37.6136 26.2358C35.825 26.0924 33.6512 24.5152 32.3192 22.3819C30.9301 20.1313 31.8366 18.9142 34.5956 19.31L35.9556 19.5175L36.6475 18.3567C38.6153 14.9998 43.3338 14.9474 41.0804 22.7764Z" fill="#FAFAFA"/>
<path d="M23.8914 39.0826C24.2286 39.4263 25.1897 40.6514 26.0445 41.8074C32.4122 50.4382 47.5336 42.8384 43.6779 32.9571C43.2031 31.7366 42.9123 30.5956 43.021 30.4216C43.9598 28.874 39.7321 29.4856 37.4001 31.2534C36.675 31.801 33.6253 33.3383 29.9224 35.0249C23.0638 38.1311 23.0247 38.1502 23.8914 39.0826ZM40.7818 31.6357L41.4879 33.0822C44.1121 38.4575 35.9555 46.0943 30.6129 43.2322C28.7835 42.2615 28.3546 41.3332 26.8146 38.5753C35.6629 33.8927 35.897 33.8268 40.7818 31.6357Z" fill="#FAFAFA"/>
</svg>
