<svg width="99" height="99" viewBox="0 0 99 99" fill="none" xmlns="http://www.w3.org/2000/svg">
<path fill-rule="evenodd" clip-rule="evenodd" d="M29.2972 39.1132C20.5585 43.3837 17.7147 51.5804 20.9616 63.4071C24.2559 75.5327 38.5129 79.6237 49.8511 71.694L51.9413 70.2192C54.3912 71.6952 54.7135 71.6067 53.0194 73.3886C51.6736 74.7977 52.1089 75.7525 53.2463 75.8561C54.7735 75.9913 65.4051 81.7707 67.0727 83.4268C73.2203 89.5363 82.898 84.1417 80.6319 78.6646C79.6019 76.1751 76.8133 73.7178 73.9091 72.2279C70.6764 70.551 68.6955 69.0156 65.8033 65.9284C63.0021 62.9201 61.1464 62.5978 59.1598 64.7027C58.2967 65.5981 58.2088 65.6569 57.5194 65.2917C56.1173 64.6023 55.9959 63.9079 56.8065 61.4328C59.862 51.8611 58.2056 44.6919 51.9847 40.3353C43.3165 34.2594 38.5201 38.6257 42.9951 40.0309C53.8717 43.4213 56.6971 55.6063 49.3311 67.401C45.2417 73.9645 33.4775 74.2832 28.6953 67.9722C21.1195 57.923 24.4116 41.009 37.0219 40.1114C41.4387 40.0424 41.3393 33.2427 29.2972 39.1132ZM30.2111 47.4912C29.1439 49.0318 30.3205 49.783 32.4119 47.3028C33.8803 45.5828 34.6886 45.1184 36.4383 45.0539C38.7301 44.9445 39.9009 44.034 38.9233 43.1241C38.5916 42.7993 33.4828 42.7464 30.2111 47.4912ZM43.0185 43.5246C41.2518 43.9056 41.066 44.9963 42.6034 45.9257C44.5193 47.0978 47.5549 46.5416 46.9956 45.1357C46.6247 44.1633 44.3574 43.2263 43.0185 43.5246ZM61.6469 67.4506C62.1967 68.4433 65.7687 71.4825 67.5026 72.4966C69.5973 73.6889 70.6071 74.59 73.3709 76.3263C78.9897 79.8779 75.1252 85.9984 69.4369 81.1836C62.2606 75.114 56.8454 74.071 56.671 73.1832C56.4668 72.061 61.1736 66.6103 61.6469 67.4506Z" fill="#003366"/>
</svg>
