<svg width="99" height="156" viewBox="0 0 99 156" fill="none" xmlns="http://www.w3.org/2000/svg">
<path d="M60.8409 66.1825C56.9866 57.8513 54.4872 48.7214 53.5332 39.5828C52.802 32.5412 52.2568 20.078 52.6213 18.4097C53.1894 15.8102 48.6519 11.6439 47.5497 16.6877C46.9817 19.2872 41.936 33.2361 34.6381 38.7934C27.7115 44.1058 25.2819 45.0441 21.4247 44.2054C19.2209 43.6946 19.4031 44.5229 22.051 47.3641C28.5954 54.3958 30.5098 62.256 32.0889 88.4777C33.0247 103.724 35.4132 104.844 40.3693 92.3437C45.2687 79.8955 55.7386 68.9636 61.1561 70.5572C62.943 71.1056 62.9001 70.6785 60.8409 66.1825ZM38.7494 80.0199L37.2317 83.018C37.092 81.9953 36.7001 62.1824 30.4319 52.848C28.7172 50.307 28.4699 49.5687 29.6218 50.3224C33.3157 52.7395 41.1692 46.9249 44.9347 38.8345C46.6929 35.1513 46.846 35.0741 47.3022 38.3881C48.2177 45.4173 50.5912 53.0457 54.3603 61.1438L56.8256 66.4824C56.2785 66.7009 46.5955 64.267 38.7494 80.0199Z" fill="#FFC107"/>
<path d="M74.3354 128.659C69.2299 119.683 66.611 107.981 68.184 100.784C68.8738 97.6281 65.3725 91.1984 61.798 99.1081C57.3981 108.941 55.4341 111.13 50.0339 112.564C45.5979 113.706 45.609 113.449 49.947 117.699C53.9867 121.665 55.9649 129.297 55.8732 140.632C55.8183 147.679 60.4454 151.018 62.0219 144.835C64.2407 136.125 67.4128 132.528 72.7774 132.698C76.1822 132.773 76.3872 132.247 74.3354 128.659ZM69.1642 127.604C67.6851 127.163 63.2461 127.906 62.077 128.724C60.4667 129.913 60.5061 129.939 59.5989 126.881C58.8214 124.26 56.4714 120.389 54.6964 118.83C53.3461 117.594 53.4022 117.543 56.1656 116.845C57.4953 116.528 59.4937 115.417 60.6178 114.394C63.1216 112.206 62.8768 112.09 63.9896 115.855C64.8516 118.707 66.4986 122.294 68.722 126.126C69.3608 127.116 69.5045 127.695 69.1642 127.604Z" fill="#FFC107"/>
</svg>
